<svg 
          width="367.66473388671875" 
          height="478.0425109863281" fill="none" 
          xmlns="http://www.w3.org/2000/svg">
          <path d="M 33.33493587239583 0 L 334.32979801432293 0 C 343.17077272749754 0 351.64963952927866 5.925307327797569 357.90115272599456 16.47240873185151 C 364.15266592271047 27.01951013590545 367.66473388671875 41.324441619826864 367.66473388671875 56.24029541015625 L 367.66473388671875 421.8022155761719 C 367.66473388671875 436.71806936650125 364.15266592271047 451.02300085042265 357.90115272599456 461.5701022544766 C 351.64963952927866 472.1172036585305 343.17077272749754 478.0425109863281 334.32979801432293 478.0425109863281 L 33.33493587239583 478.0425109863281 C 24.493961159221207 478.0425109863281 16.01509435744009 472.1172036585305 9.763581160724163 461.5701022544766 C 3.5120679640082333 451.02300085042265 0 436.71806936650125 0 421.8022155761719 L 0 56.24029541015625 C 0 41.324441619826864 3.5120679640082333 27.01951013590545 9.763581160724163 16.47240873185151 C 16.01509435744009 5.925307327797569 24.493961159221207 0 33.33493587239583 0 Z" fill="rgb(254.00000005960464,254.00000005960464,255)"/>
        </svg>